<svg width="488" height="142" viewBox="0 0 488 142" fill="none" xmlns="http://www.w3.org/2000/svg">
<path d="M45.2301 65.4625L25.6359 31.6625C24.765 30.2542 24.5473 28.8458 24.9827 27.4375C25.4181 26.0292 26.289 24.8917 27.5953 24.025C32.8204 20.3417 38.6182 17.4167 44.9885 15.25C51.3588 13.0833 58.1341 12 65.3143 12C66.9471 12 68.7433 12.0823 70.7027 12.247C72.6621 12.4117 74.295 12.6002 75.6013 12.8125C77.1253 13.0292 78.1333 13.6792 78.6253 14.7625C79.1174 15.8458 78.9802 17.0375 78.2139 18.3375L50.9451 65.4625C50.292 66.5458 49.3406 67.0875 48.0909 67.0875C46.8412 67.0875 45.8876 66.5458 45.2301 65.4625ZM5.55171 90C4.35429 90 3.26571 89.5948 2.286 88.7845C1.30629 87.9742 0.707572 86.971 0.489857 85.775C0.272143 84.579 0.13716 83.279 0.0849087 81.875C0.0326572 80.471 0.00435429 78.846 0 77C0 70.175 1.11687 63.3782 3.35062 56.6095C5.58437 49.8408 9.0395 43.421 13.716 37.35C14.9134 35.8333 16.3024 35.075 17.8831 35.075C19.4637 35.075 20.6872 35.8875 21.5537 37.5125L48.9857 85.125C49.6389 86.2083 49.6127 87.2917 48.9073 88.375C48.2019 89.4583 47.2484 90 46.0466 90H5.55171ZM38.2089 136.15C31.0243 132.683 24.4384 127.971 18.4513 122.012C12.4641 116.054 7.94657 109.283 4.89857 101.7C4.35429 100.292 4.46314 99.074 5.22514 98.047C5.98714 97.02 7.13014 96.5043 8.65414 96.5H61.8853C63.0827 96.5 64.008 97.0417 64.6611 98.125C65.3143 99.2083 65.3143 100.292 64.6611 101.375L45.8833 134.037C45.0124 135.446 43.9239 136.367 42.6176 136.8C41.3113 137.233 39.8417 137.017 38.2089 136.15ZM65.3143 142C63.7903 142 62.0747 141.918 60.1675 141.753C58.2603 141.588 56.6014 141.4 55.1906 141.187C53.6666 140.971 52.6324 140.321 52.0881 139.238C51.5439 138.154 51.6527 136.962 52.4147 135.662L79.3569 88.8625C80.01 87.7792 81.0986 87.2375 82.6226 87.2375C84.1466 87.2375 85.2351 87.7792 85.8883 88.8625L105.156 122.175C105.918 123.367 106.164 124.667 105.894 126.075C105.624 127.483 104.725 128.783 103.197 129.975C98.1891 133.658 92.3392 136.583 85.6466 138.75C78.9541 140.917 72.1766 142 65.3143 142Z" fill="white"/>
<path d="M99.2012 13.1025V21.9199H108.019V30.7383H116.285V39.5557H125.104V57.1914H65.0312V48.374H73.8496V30.7383H82.1162V13.1025H99.2012Z" fill="white"/>
<path d="M128.132 70.9547H132V91.3453H128.132V103.723H124.007V107.611H120.138V115.863H116.012V119.989H108.019V111.737H103.893V103.723H100.025V95.4713H95.8992V91.3453H92.031V83.3317H87.906V79.2057H84.0379V70.9547H79.9119V62.7028H128.132V70.9547Z" fill="white"/>
<path d="M180.854 53.0488H183.976V56.1707H180.854V53.0488ZM180.854 49.9268H183.976V53.0488H180.854V49.9268ZM180.854 46.8049H183.976V49.9268H180.854V46.8049ZM183.976 46.8049H187.098V49.9268H183.976V46.8049ZM183.976 49.9268H187.098V53.0488H183.976V49.9268ZM187.098 49.9268H190.22V53.0488H187.098V49.9268ZM187.098 53.0488H190.22V56.1707H187.098V53.0488ZM183.976 53.0488H187.098V56.1707H183.976V53.0488ZM190.22 53.0488H193.341V56.1707H190.22V53.0488ZM190.22 49.9268H193.341V53.0488H190.22V49.9268ZM190.22 46.8049H193.341V49.9268H190.22V46.8049ZM190.22 43.6829H193.341V46.8049H190.22V43.6829ZM187.098 43.6829H190.22V46.8049H187.098V43.6829ZM187.098 46.8049H190.22V49.9268H187.098V46.8049ZM193.341 43.6829H196.463V46.8049H193.341V43.6829ZM196.463 43.6829H199.585V46.8049H196.463V43.6829ZM199.585 43.6829H202.707V46.8049H199.585V43.6829ZM199.585 46.8049H202.707V49.9268H199.585V46.8049ZM199.585 49.9268H202.707V53.0488H199.585V49.9268ZM199.585 53.0488H202.707V56.1707H199.585V53.0488ZM196.463 53.0488H199.585V56.1707H196.463V53.0488ZM193.341 53.0488H196.463V56.1707H193.341V53.0488ZM193.341 49.9268H196.463V53.0488H193.341V49.9268ZM193.341 46.8049H196.463V49.9268H193.341V46.8049ZM196.463 46.8049H199.585V49.9268H196.463V46.8049ZM196.463 49.9268H199.585V53.0488H196.463V49.9268ZM202.707 49.9268H205.829V53.0488H202.707V49.9268ZM202.707 46.8049H205.829V49.9268H202.707V46.8049ZM205.829 46.8049H208.951V49.9268H205.829V46.8049ZM205.829 49.9268H208.951V53.0488H205.829V49.9268ZM208.951 49.9268H212.073V53.0488H208.951V49.9268ZM208.951 53.0488H212.073V56.1707H208.951V53.0488ZM208.951 56.1707H212.073V59.2927H208.951V56.1707ZM205.829 56.1707H208.951V59.2927H205.829V56.1707ZM205.829 53.0488H208.951V56.1707H205.829V53.0488ZM202.707 53.0488H205.829V56.1707H202.707V53.0488ZM202.707 56.1707H205.829V59.2927H202.707V56.1707ZM199.585 56.1707H202.707V59.2927H199.585V56.1707ZM196.463 56.1707H199.585V59.2927H196.463V56.1707ZM212.073 56.1707H215.195V59.2927H212.073V56.1707ZM212.073 59.2927H215.195V62.4146H212.073V59.2927ZM212.073 62.4146H215.195V65.5366H212.073V62.4146ZM212.073 65.5366H215.195V68.6585H212.073V65.5366ZM212.073 68.6585H215.195V71.7805H212.073V68.6585ZM212.073 71.7805H215.195V74.9024H212.073V71.7805ZM212.073 74.9024H215.195V78.0244H212.073V74.9024ZM212.073 78.0244H215.195V81.1463H212.073V78.0244ZM212.073 81.1463H215.195V84.2683H212.073V81.1463ZM212.073 84.2683H215.195V87.3902H212.073V84.2683ZM208.951 84.2683H212.073V87.3902H208.951V84.2683ZM208.951 87.3902H212.073V90.5122H208.951V87.3902ZM212.073 87.3902H215.195V90.5122H212.073V87.3902ZM205.829 87.3902H208.951V90.5122H205.829V87.3902ZM202.707 87.3902H205.829V90.5122H202.707V87.3902ZM199.585 87.3902H202.707V90.5122H199.585V87.3902ZM196.463 87.3902H199.585V90.5122H196.463V87.3902ZM199.585 84.2683H202.707V87.3902H199.585V84.2683ZM199.585 81.1463H202.707V84.2683H199.585V81.1463ZM199.585 78.0244H202.707V81.1463H199.585V78.0244ZM199.585 74.9024H202.707V78.0244H199.585V74.9024ZM199.585 71.7805H202.707V74.9024H199.585V71.7805ZM199.585 68.6585H202.707V71.7805H199.585V68.6585ZM199.585 65.5366H202.707V68.6585H199.585V65.5366ZM199.585 62.4146H202.707V65.5366H199.585V62.4146ZM199.585 59.2927H202.707V62.4146H199.585V59.2927ZM202.707 59.2927H205.829V62.4146H202.707V59.2927ZM205.829 59.2927H208.951V62.4146H205.829V59.2927ZM208.951 59.2927H212.073V62.4146H208.951V59.2927ZM208.951 62.4146H212.073V65.5366H208.951V62.4146ZM208.951 65.5366H212.073V68.6585H208.951V65.5366ZM208.951 68.6585H212.073V71.7805H208.951V68.6585ZM208.951 71.7805H212.073V74.9024H208.951V71.7805ZM208.951 74.9024H212.073V78.0244H208.951V74.9024ZM208.951 78.0244H212.073V81.1463H208.951V78.0244ZM208.951 81.1463H212.073V84.2683H208.951V81.1463ZM205.829 84.2683H208.951V87.3902H205.829V84.2683ZM202.707 84.2683H205.829V87.3902H202.707V84.2683ZM202.707 81.1463H205.829V84.2683H202.707V81.1463ZM202.707 78.0244H205.829V81.1463H202.707V78.0244ZM202.707 74.9024H205.829V78.0244H202.707V74.9024ZM202.707 71.7805H205.829V74.9024H202.707V71.7805ZM205.829 71.7805H208.951V74.9024H205.829V71.7805ZM205.829 68.6585H208.951V71.7805H205.829V68.6585ZM205.829 65.5366H208.951V68.6585H205.829V65.5366ZM205.829 62.4146H208.951V65.5366H205.829V62.4146ZM202.707 62.4146H205.829V65.5366H202.707V62.4146ZM202.707 65.5366H205.829V68.6585H202.707V65.5366ZM202.707 68.6585H205.829V71.7805H202.707V68.6585ZM205.829 78.0244H208.951V81.1463H205.829V78.0244ZM205.829 81.1463H208.951V84.2683H205.829V81.1463ZM205.829 74.9024H208.951V78.0244H205.829V74.9024ZM180.854 90.5122H183.976V93.6341H180.854V90.5122ZM183.976 99.878H187.098V103H183.976V99.878ZM187.098 99.878H190.22V103H187.098V99.878ZM190.22 99.878H193.341V103H190.22V99.878ZM193.341 99.878H196.463V103H193.341V99.878ZM196.463 99.878H199.585V103H196.463V99.878ZM199.585 99.878H202.707V103H199.585V99.878ZM196.463 96.7561H199.585V99.878H196.463V96.7561ZM193.341 96.7561H196.463V99.878H193.341V96.7561ZM190.22 96.7561H193.341V99.878H190.22V96.7561ZM187.098 96.7561H190.22V99.878H187.098V96.7561ZM183.976 96.7561H187.098V99.878H183.976V96.7561ZM180.854 96.7561H183.976V99.878H180.854V96.7561ZM180.854 93.6341H183.976V96.7561H180.854V93.6341ZM183.976 93.6341H187.098V96.7561H183.976V93.6341ZM187.098 93.6341H190.22V96.7561H187.098V93.6341ZM190.22 93.6341H193.341V96.7561H190.22V93.6341ZM193.341 93.6341H196.463V96.7561H193.341V93.6341ZM196.463 93.6341H199.585V96.7561H196.463V93.6341ZM199.585 96.7561H202.707V99.878H199.585V96.7561ZM202.707 96.7561H205.829V99.878H202.707V96.7561ZM205.829 96.7561H208.951V99.878H205.829V96.7561ZM205.829 93.6341H208.951V96.7561H205.829V93.6341ZM208.951 93.6341H212.073V96.7561H208.951V93.6341ZM208.951 90.5122H212.073V93.6341H208.951V90.5122ZM205.829 90.5122H208.951V93.6341H205.829V90.5122ZM202.707 90.5122H205.829V93.6341H202.707V90.5122ZM199.585 90.5122H202.707V93.6341H199.585V90.5122ZM196.463 90.5122H199.585V93.6341H196.463V90.5122ZM193.341 90.5122H196.463V93.6341H193.341V90.5122ZM190.22 90.5122H193.341V93.6341H190.22V90.5122ZM187.098 90.5122H190.22V93.6341H187.098V90.5122ZM183.976 90.5122H187.098V93.6341H183.976V90.5122ZM199.585 93.6341H202.707V96.7561H199.585V93.6341ZM202.707 93.6341H205.829V96.7561H202.707V93.6341ZM177.732 93.6341H180.854V96.7561H177.732V93.6341ZM177.732 90.5122H180.854V93.6341H177.732V90.5122ZM177.732 87.3902H180.854V90.5122H177.732V87.3902ZM177.732 84.2683H180.854V87.3902H177.732V84.2683ZM177.732 81.1463H180.854V84.2683H177.732V81.1463ZM177.732 78.0244H180.854V81.1463H177.732V78.0244ZM177.732 74.9024H180.854V78.0244H177.732V74.9024ZM177.732 71.7805H180.854V74.9024H177.732V71.7805ZM177.732 68.6585H180.854V71.7805H177.732V68.6585ZM177.732 65.5366H180.854V68.6585H177.732V65.5366ZM177.732 62.4146H180.854V65.5366H177.732V62.4146ZM177.732 59.2927H180.854V62.4146H177.732V59.2927ZM177.732 56.1707H180.854V59.2927H177.732V56.1707ZM174.61 56.1707H177.732V59.2927H174.61V56.1707ZM174.61 59.2927H177.732V62.4146H174.61V59.2927ZM174.61 62.4146H177.732V65.5366H174.61V62.4146ZM174.61 65.5366H177.732V68.6585H174.61V65.5366ZM174.61 68.6585H177.732V71.7805H174.61V68.6585ZM174.61 71.7805H177.732V74.9024H174.61V71.7805ZM174.61 74.9024H177.732V78.0244H174.61V74.9024ZM171.488 78.0244H174.61V81.1463H171.488V78.0244ZM171.488 81.1463H174.61V84.2683H171.488V81.1463ZM171.488 84.2683H174.61V87.3902H171.488V84.2683ZM171.488 87.3902H174.61V90.5122H171.488V87.3902ZM171.488 90.5122H174.61V93.6341H171.488V90.5122ZM171.488 93.6341H174.61V96.7561H171.488V93.6341ZM171.488 96.7561H174.61V99.878H171.488V96.7561ZM171.488 99.878H174.61V103H171.488V99.878ZM168.366 99.878H171.488V103H168.366V99.878ZM165.244 99.878H168.366V103H165.244V99.878ZM165.244 96.7561H168.366V99.878H165.244V96.7561ZM165.244 93.6341H168.366V96.7561H165.244V93.6341ZM165.244 90.5122H168.366V93.6341H165.244V90.5122ZM165.244 87.3902H168.366V90.5122H165.244V87.3902ZM165.244 84.2683H168.366V87.3902H165.244V84.2683ZM165.244 81.1463H168.366V84.2683H165.244V81.1463ZM165.244 78.0244H168.366V81.1463H165.244V78.0244ZM168.366 78.0244H171.488V81.1463H168.366V78.0244ZM168.366 74.9024H171.488V78.0244H168.366V74.9024ZM168.366 81.1463H171.488V84.2683H168.366V81.1463ZM168.366 84.2683H171.488V87.3902H168.366V84.2683ZM168.366 87.3902H171.488V90.5122H168.366V87.3902ZM168.366 90.5122H171.488V93.6341H168.366V90.5122ZM168.366 93.6341H171.488V96.7561H168.366V93.6341ZM168.366 96.7561H171.488V99.878H168.366V96.7561ZM174.61 93.6341H177.732V96.7561H174.61V93.6341ZM174.61 90.5122H177.732V93.6341H174.61V90.5122ZM174.61 87.3902H177.732V90.5122H174.61V87.3902ZM174.61 84.2683H177.732V87.3902H174.61V84.2683ZM174.61 81.1463H177.732V84.2683H174.61V81.1463ZM174.61 78.0244H177.732V81.1463H174.61V78.0244ZM177.732 103H180.854V106.122H177.732V103ZM177.732 106.122H180.854V109.244H177.732V106.122ZM177.732 109.244H180.854V112.366H177.732V109.244ZM177.732 112.366H180.854V115.488H177.732V112.366ZM177.732 115.488H180.854V118.61H177.732V115.488ZM177.732 118.61H180.854V121.732H177.732V118.61ZM177.732 46.8049H180.854V49.9268H177.732V46.8049ZM177.732 53.0488H180.854V56.1707H177.732V53.0488ZM168.366 103H171.488V106.122H168.366V103ZM168.366 106.122H171.488V109.244H168.366V106.122ZM168.366 109.244H171.488V112.366H168.366V109.244ZM168.366 112.366H171.488V115.488H168.366V112.366ZM168.366 115.488H171.488V118.61H168.366V115.488ZM168.366 118.61H171.488V121.732H168.366V118.61ZM168.366 46.8049H171.488V49.9268H168.366V46.8049ZM168.366 49.9268H171.488V53.0488H168.366V49.9268ZM168.366 53.0488H171.488V56.1707H168.366V53.0488ZM168.366 59.2927H171.488V62.4146H168.366V59.2927ZM168.366 62.4146H171.488V65.5366H168.366V62.4146ZM168.366 65.5366H171.488V68.6585H168.366V65.5366ZM165.244 68.6585H168.366V71.7805H165.244V68.6585ZM165.244 71.7805H168.366V74.9024H165.244V71.7805ZM165.244 74.9024H168.366V78.0244H165.244V74.9024ZM165.244 65.5366H168.366V68.6585H165.244V65.5366ZM165.244 62.4146H168.366V65.5366H165.244V62.4146ZM165.244 56.1707H168.366V59.2927H165.244V56.1707ZM165.244 53.0488H168.366V56.1707H165.244V53.0488ZM165.244 49.9268H168.366V53.0488H165.244V49.9268ZM165.244 46.8049H168.366V49.9268H165.244V46.8049ZM165.244 43.6829H168.366V46.8049H165.244V43.6829ZM165.244 118.61H168.366V121.732H165.244V118.61ZM165.244 115.488H168.366V118.61H165.244V115.488ZM168.366 43.6829H171.488V46.8049H168.366V43.6829ZM165.244 112.366H168.366V115.488H165.244V112.366ZM165.244 109.244H168.366V112.366H165.244V109.244ZM165.244 106.122H168.366V109.244H165.244V106.122ZM165.244 103H168.366V106.122H165.244V103ZM171.488 103H174.61V106.122H171.488V103ZM174.61 103H177.732V106.122H174.61V103ZM174.61 106.122H177.732V109.244H174.61V106.122ZM171.488 106.122H174.61V109.244H171.488V106.122ZM171.488 109.244H174.61V112.366H171.488V109.244ZM171.488 112.366H174.61V115.488H171.488V112.366ZM171.488 115.488H174.61V118.61H171.488V115.488ZM171.488 118.61H174.61V121.732H171.488V118.61ZM171.488 43.6829H174.61V46.8049H171.488V43.6829ZM171.488 46.8049H174.61V49.9268H171.488V46.8049ZM174.61 49.9268H177.732V53.0488H174.61V49.9268ZM174.61 53.0488H177.732V56.1707H174.61V53.0488ZM174.61 46.8049H177.732V49.9268H174.61V46.8049ZM174.61 43.6829H177.732V46.8049H174.61V43.6829ZM174.61 118.61H177.732V121.732H174.61V118.61ZM174.61 115.488H177.732V118.61H174.61V115.488ZM174.61 112.366H177.732V115.488H174.61V112.366ZM174.61 109.244H177.732V112.366H174.61V109.244ZM171.488 53.0488H174.61V56.1707H171.488V53.0488ZM171.488 59.2927H174.61V62.4146H171.488V59.2927ZM171.488 62.4146H174.61V65.5366H171.488V62.4146ZM171.488 65.5366H174.61V68.6585H171.488V65.5366ZM171.488 68.6585H174.61V71.7805H171.488V68.6585ZM171.488 71.7805H174.61V74.9024H171.488V71.7805ZM171.488 74.9024H174.61V78.0244H171.488V74.9024ZM168.366 71.7805H171.488V74.9024H168.366V71.7805ZM168.366 68.6585H171.488V71.7805H168.366V68.6585ZM177.732 43.6829H180.854V46.8049H177.732V43.6829ZM165.244 59.2927H168.366V62.4146H165.244V59.2927ZM177.732 49.9268H180.854V53.0488H177.732V49.9268ZM171.488 49.9268H174.61V53.0488H171.488V49.9268ZM171.488 56.1707H174.61V59.2927H171.488V56.1707ZM168.366 56.1707H171.488V59.2927H168.366V56.1707ZM177.732 96.7561H180.854V99.878H177.732V96.7561ZM174.61 96.7561H177.732V99.878H174.61V96.7561ZM174.61 99.878H177.732V103H174.61V99.878ZM187.098 43.6829V46.8049H183.976V43.6829H187.098ZM180.854 99.878V103H177.732V99.878H180.854ZM183.976 56.1707V59.2927H180.854V56.1707H183.976ZM183.976 99.878V103H180.854V99.878H183.976ZM227.741 99.878V103H224.619V99.878H227.741ZM227.741 96.7561V99.878H224.619V96.7561H227.741ZM227.741 93.6341V96.7561H224.619V93.6341H227.741ZM227.741 90.5122V93.6341H224.619V90.5122H227.741ZM227.741 87.3902V90.5122H224.619V87.3902H227.741ZM227.741 84.2683V87.3902H224.619V84.2683H227.741ZM227.741 81.1463V84.2683H224.619V81.1463H227.741ZM227.741 78.0244V81.1463H224.619V78.0244H227.741ZM227.741 74.9024V78.0244H224.619V74.9024H227.741ZM227.741 71.7805V74.9024H224.619V71.7805H227.741ZM227.741 68.6585V71.7805H224.619V68.6585H227.741ZM227.741 65.5366V68.6585H224.619V65.5366H227.741ZM227.741 62.4146V65.5366H224.619V62.4146H227.741ZM227.741 59.2927V62.4146H224.619V59.2927H227.741ZM227.741 56.1707V59.2927H224.619V56.1707H227.741ZM230.863 56.1707V59.2927H227.741V56.1707H230.863ZM230.863 59.2927V62.4146H227.741V59.2927H230.863ZM230.863 62.4146V65.5366H227.741V62.4146H230.863ZM230.863 65.5366V68.6585H227.741V65.5366H230.863ZM230.863 68.6585V71.7805H227.741V68.6585H230.863ZM230.863 71.7805V74.9024H227.741V71.7805H230.863ZM230.863 74.9024V78.0244H227.741V74.9024H230.863ZM233.985 78.0244V81.1463H230.863V78.0244H233.985ZM233.985 81.1463V84.2683H230.863V81.1463H233.985ZM233.985 84.2683V87.3902H230.863V84.2683H233.985ZM233.985 87.3902V90.5122H230.863V87.3902H233.985ZM233.985 90.5122V93.6341H230.863V90.5122H233.985ZM233.985 93.6341V96.7561H230.863V93.6341H233.985ZM233.985 96.7561V99.878H230.863V96.7561H233.985ZM233.985 99.878V103H230.863V99.878H233.985ZM237.107 99.878V103H233.985V99.878H237.107ZM240.229 99.878V103H237.107V99.878H240.229ZM240.229 96.7561V99.878H237.107V96.7561H240.229ZM240.229 93.6341V96.7561H237.107V93.6341H240.229ZM240.229 90.5122V93.6341H237.107V90.5122H240.229ZM240.229 87.3902V90.5122H237.107V87.3902H240.229ZM240.229 84.2683V87.3902H237.107V84.2683H240.229ZM240.229 81.1463V84.2683H237.107V81.1463H240.229ZM240.229 78.0244V81.1463H237.107V78.0244H240.229ZM237.107 78.0244V81.1463H233.985V78.0244H237.107ZM237.107 74.9024V78.0244H233.985V74.9024H237.107ZM237.107 81.1463V84.2683H233.985V81.1463H237.107ZM237.107 84.2683V87.3902H233.985V84.2683H237.107ZM237.107 87.3902V90.5122H233.985V87.3902H237.107ZM237.107 90.5122V93.6341H233.985V90.5122H237.107ZM237.107 93.6341V96.7561H233.985V93.6341H237.107ZM237.107 96.7561V99.878H233.985V96.7561H237.107ZM230.863 99.878V103H227.741V99.878H230.863ZM230.863 96.7561V99.878H227.741V96.7561H230.863ZM230.863 93.6341V96.7561H227.741V93.6341H230.863ZM230.863 90.5122V93.6341H227.741V90.5122H230.863ZM230.863 87.3902V90.5122H227.741V87.3902H230.863ZM230.863 84.2683V87.3902H227.741V84.2683H230.863ZM230.863 81.1463V84.2683H227.741V81.1463H230.863ZM230.863 78.0244V81.1463H227.741V78.0244H230.863ZM227.741 24.9512V28.0732H224.619V24.9512H227.741ZM227.741 28.0732V31.1951H224.619V28.0732H227.741ZM227.741 31.1951V34.3171H224.619V31.1951H227.741ZM227.741 34.3171V37.439H224.619V34.3171H227.741ZM227.741 37.439V40.561H224.619V37.439H227.741ZM227.741 40.561V43.6829H224.619V40.561H227.741ZM227.741 43.6829V46.8049H224.619V43.6829H227.741ZM227.741 46.8049V49.9268H224.619V46.8049H227.741ZM227.741 49.9268V53.0488H224.619V49.9268H227.741ZM227.741 53.0488V56.1707H224.619V53.0488H227.741ZM237.107 24.9512V28.0732H233.985V24.9512H237.107ZM237.107 28.0732V31.1951H233.985V28.0732H237.107ZM237.107 31.1951V34.3171H233.985V31.1951H237.107ZM237.107 34.3171V37.439H233.985V34.3171H237.107ZM237.107 37.439V40.561H233.985V37.439H237.107ZM237.107 40.561V43.6829H233.985V40.561H237.107ZM237.107 46.8049V49.9268H233.985V46.8049H237.107ZM237.107 49.9268V53.0488H233.985V49.9268H237.107ZM237.107 53.0488V56.1707H233.985V53.0488H237.107ZM237.107 56.1707V59.2927H233.985V56.1707H237.107ZM237.107 59.2927V62.4146H233.985V59.2927H237.107ZM237.107 62.4146V65.5366H233.985V62.4146H237.107ZM237.107 65.5366V68.6585H233.985V65.5366H237.107ZM240.229 68.6585V71.7805H237.107V68.6585H240.229ZM240.229 71.7805V74.9024H237.107V71.7805H240.229ZM240.229 74.9024V78.0244H237.107V74.9024H240.229ZM240.229 65.5366V68.6585H237.107V65.5366H240.229ZM240.229 62.4146V65.5366H237.107V62.4146H240.229ZM240.229 59.2927V62.4146H237.107V59.2927H240.229ZM240.229 56.1707V59.2927H237.107V56.1707H240.229ZM240.229 53.0488V56.1707H237.107V53.0488H240.229ZM240.229 49.9268V53.0488H237.107V49.9268H240.229ZM240.229 46.8049V49.9268H237.107V46.8049H240.229ZM240.229 43.6829V46.8049H237.107V43.6829H240.229ZM240.229 40.561V43.6829H237.107V40.561H240.229ZM240.229 37.439V40.561H237.107V37.439H240.229ZM237.107 43.6829V46.8049H233.985V43.6829H237.107ZM240.229 34.3171V37.439H237.107V34.3171H240.229ZM240.229 31.1951V34.3171H237.107V31.1951H240.229ZM240.229 28.0732V31.1951H237.107V28.0732H240.229ZM240.229 24.9512V28.0732H237.107V24.9512H240.229ZM233.985 24.9512V28.0732H230.863V24.9512H233.985ZM230.863 24.9512V28.0732H227.741V24.9512H230.863ZM230.863 28.0732V31.1951H227.741V28.0732H230.863ZM233.985 28.0732V31.1951H230.863V28.0732H233.985ZM233.985 31.1951V34.3171H230.863V31.1951H233.985ZM233.985 34.3171V37.439H230.863V34.3171H233.985ZM233.985 37.439V40.561H230.863V37.439H233.985ZM233.985 40.561V43.6829H230.863V40.561H233.985ZM233.985 43.6829V46.8049H230.863V43.6829H233.985ZM233.985 46.8049V49.9268H230.863V46.8049H233.985ZM230.863 49.9268V53.0488H227.741V49.9268H230.863ZM230.863 53.0488V56.1707H227.741V53.0488H230.863ZM230.863 46.8049V49.9268H227.741V46.8049H230.863ZM230.863 43.6829V46.8049H227.741V43.6829H230.863ZM230.863 40.561V43.6829H227.741V40.561H230.863ZM230.863 37.439V40.561H227.741V37.439H230.863ZM230.863 34.3171V37.439H227.741V34.3171H230.863ZM230.863 31.1951V34.3171H227.741V31.1951H230.863ZM233.985 49.9268V53.0488H230.863V49.9268H233.985ZM233.985 53.0488V56.1707H230.863V53.0488H233.985ZM233.985 56.1707V59.2927H230.863V56.1707H233.985ZM233.985 59.2927V62.4146H230.863V59.2927H233.985ZM233.985 62.4146V65.5366H230.863V62.4146H233.985ZM233.985 65.5366V68.6585H230.863V65.5366H233.985ZM233.985 68.6585V71.7805H230.863V68.6585H233.985ZM233.985 71.7805V74.9024H230.863V71.7805H233.985ZM233.985 74.9024V78.0244H230.863V74.9024H233.985ZM237.107 71.7805V74.9024H233.985V71.7805H237.107ZM237.107 68.6585V71.7805H233.985V68.6585H237.107ZM262.082 99.878V103H258.96V99.878H262.082ZM265.204 99.878V103H262.082V99.878H265.204ZM268.326 99.878V103H265.204V99.878H268.326ZM271.448 99.878V103H268.326V99.878H271.448ZM274.57 96.7561V99.878H271.448V96.7561H274.57ZM274.57 93.6341V96.7561H271.448V93.6341H274.57ZM274.57 99.878V103H271.448V99.878H274.57ZM271.448 96.7561V99.878H268.326V96.7561H271.448ZM268.326 96.7561V99.878H265.204V96.7561H268.326ZM265.204 96.7561V99.878H262.082V96.7561H265.204ZM262.082 96.7561V99.878H258.96V96.7561H262.082ZM262.082 93.6341V96.7561H258.96V93.6341H262.082ZM262.082 90.5122V93.6341H258.96V90.5122H262.082ZM265.204 90.5122V93.6341H262.082V90.5122H265.204ZM268.326 90.5122V93.6341H265.204V90.5122H268.326ZM271.448 90.5122V93.6341H268.326V90.5122H271.448ZM274.57 90.5122V93.6341H271.448V90.5122H274.57ZM271.448 93.6341V96.7561H268.326V93.6341H271.448ZM268.326 93.6341V96.7561H265.204V93.6341H268.326ZM265.204 93.6341V96.7561H262.082V93.6341H265.204ZM274.57 56.1707V59.2927H271.448V56.1707H274.57ZM271.448 56.1707V59.2927H268.326V56.1707H271.448ZM265.204 56.1707V59.2927H262.082V56.1707H265.204ZM265.204 59.2927V62.4146H262.082V59.2927H265.204ZM265.204 62.4146V65.5366H262.082V62.4146H265.204ZM262.082 65.5366V68.6585H258.96V65.5366H262.082ZM262.082 68.6585V71.7805H258.96V68.6585H262.082ZM262.082 71.7805V74.9024H258.96V71.7805H262.082ZM262.082 74.9024V78.0244H258.96V74.9024H262.082ZM262.082 78.0244V81.1463H258.96V78.0244H262.082ZM262.082 81.1463V84.2683H258.96V81.1463H262.082ZM262.082 84.2683V87.3902H258.96V84.2683H262.082ZM262.082 87.3902V90.5122H258.96V87.3902H262.082ZM265.204 87.3902V90.5122H262.082V87.3902H265.204ZM268.326 87.3902V90.5122H265.204V87.3902H268.326ZM271.448 87.3902V90.5122H268.326V87.3902H271.448ZM274.57 87.3902V90.5122H271.448V87.3902H274.57ZM274.57 84.2683V87.3902H271.448V84.2683H274.57ZM274.57 78.0244V81.1463H271.448V78.0244H274.57ZM274.57 74.9024V78.0244H271.448V74.9024H274.57ZM274.57 71.7805V74.9024H271.448V71.7805H274.57ZM274.57 68.6585V71.7805H271.448V68.6585H274.57ZM274.57 65.5366V68.6585H271.448V65.5366H274.57ZM274.57 62.4146V65.5366H271.448V62.4146H274.57ZM274.57 59.2927V62.4146H271.448V59.2927H274.57ZM271.448 71.7805V74.9024H268.326V71.7805H271.448ZM271.448 78.0244V81.1463H268.326V78.0244H271.448ZM271.448 81.1463V84.2683H268.326V81.1463H271.448ZM271.448 84.2683V87.3902H268.326V84.2683H271.448ZM274.57 81.1463V84.2683H271.448V81.1463H274.57ZM271.448 65.5366V68.6585H268.326V65.5366H271.448ZM268.326 65.5366V68.6585H265.204V65.5366H268.326ZM265.204 65.5366V68.6585H262.082V65.5366H265.204ZM265.204 68.6585V71.7805H262.082V68.6585H265.204ZM265.204 71.7805V74.9024H262.082V71.7805H265.204ZM265.204 74.9024V78.0244H262.082V74.9024H265.204ZM265.204 78.0244V81.1463H262.082V78.0244H265.204ZM265.204 81.1463V84.2683H262.082V81.1463H265.204ZM265.204 84.2683V87.3902H262.082V84.2683H265.204ZM268.326 84.2683V87.3902H265.204V84.2683H268.326ZM268.326 81.1463V84.2683H265.204V81.1463H268.326ZM268.326 78.0244V81.1463H265.204V78.0244H268.326ZM268.326 74.9024V78.0244H265.204V74.9024H268.326ZM268.326 71.7805V74.9024H265.204V71.7805H268.326ZM268.326 68.6585V71.7805H265.204V68.6585H268.326ZM271.448 68.6585V71.7805H268.326V68.6585H271.448ZM271.448 74.9024V78.0244H268.326V74.9024H271.448ZM271.448 62.4146V65.5366H268.326V62.4146H271.448ZM271.448 59.2927V62.4146H268.326V59.2927H271.448ZM268.326 59.2927V62.4146H265.204V59.2927H268.326ZM268.326 62.4146V65.5366H265.204V62.4146H268.326ZM262.082 62.4146V65.5366H258.96V62.4146H262.082ZM262.082 59.2927V62.4146H258.96V59.2927H262.082ZM262.082 56.1707V59.2927H258.96V56.1707H262.082ZM268.326 56.1707V59.2927H265.204V56.1707H268.326ZM262.082 43.6829V46.8049H258.96V43.6829H262.082ZM262.082 46.8049V49.9268H258.96V46.8049H262.082ZM265.204 46.8049V49.9268H262.082V46.8049H265.204ZM268.326 46.8049V49.9268H265.204V46.8049H268.326ZM268.326 49.9268V53.0488H265.204V49.9268H268.326ZM271.448 49.9268V53.0488H268.326V49.9268H271.448ZM271.448 53.0488V56.1707H268.326V53.0488H271.448ZM268.326 53.0488V56.1707H265.204V53.0488H268.326ZM265.204 53.0488V56.1707H262.082V53.0488H265.204ZM265.204 49.9268V53.0488H262.082V49.9268H265.204ZM262.082 49.9268V53.0488H258.96V49.9268H262.082ZM258.96 49.9268V53.0488H255.838V49.9268H258.96ZM258.96 53.0488V56.1707H255.838V53.0488H258.96ZM262.082 53.0488V56.1707H258.96V53.0488H262.082ZM258.96 56.1707V59.2927H255.838V56.1707H258.96ZM255.838 53.0488V56.1707H252.716V53.0488H255.838ZM255.838 49.9268V53.0488H252.716V49.9268H255.838ZM255.838 46.8049V49.9268H252.716V46.8049H255.838ZM255.838 43.6829V46.8049H252.716V43.6829H255.838ZM258.96 43.6829V46.8049H255.838V43.6829H258.96ZM258.96 46.8049V49.9268H255.838V46.8049H258.96ZM252.716 43.6829V46.8049H249.595V43.6829H252.716ZM252.716 46.8049V49.9268H249.595V46.8049H252.716ZM252.716 49.9268V53.0488H249.595V49.9268H252.716ZM252.716 53.0488V56.1707H249.595V53.0488H252.716ZM249.595 43.6829V46.8049H246.473V43.6829H249.595ZM249.595 46.8049V49.9268H246.473V46.8049H249.595ZM246.473 46.8049V49.9268H243.351V46.8049H246.473ZM246.473 49.9268V53.0488H243.351V49.9268H246.473ZM243.351 49.9268V53.0488H240.229V49.9268H243.351ZM243.351 53.0488V56.1707H240.229V53.0488H243.351ZM246.473 53.0488V56.1707H243.351V53.0488H246.473ZM249.595 53.0488V56.1707H246.473V53.0488H249.595ZM249.595 49.9268V53.0488H246.473V49.9268H249.595ZM243.351 56.1707V59.2927H240.229V56.1707H243.351ZM246.473 43.6829V46.8049H243.351V43.6829H246.473ZM243.351 46.8049V49.9268H240.229V46.8049H243.351ZM318.335 62.4146V65.5366H315.213V62.4146H318.335ZM321.457 62.4146V65.5366H318.335V62.4146H321.457ZM324.579 62.4146V65.5366H321.457V62.4146H324.579ZM327.701 62.4146V65.5366H324.579V62.4146H327.701ZM330.823 62.4146V65.5366H327.701V62.4146H330.823ZM330.823 59.2927V62.4146H327.701V59.2927H330.823ZM330.823 56.1707V59.2927H327.701V56.1707H330.823ZM327.701 56.1707V59.2927H324.579V56.1707H327.701ZM324.579 56.1707V59.2927H321.457V56.1707H324.579ZM321.457 56.1707V59.2927H318.335V56.1707H321.457ZM321.457 59.2927V62.4146H318.335V59.2927H321.457ZM318.335 59.2927V62.4146H315.213V59.2927H318.335ZM324.579 59.2927V62.4146H321.457V59.2927H324.579ZM327.701 59.2927V62.4146H324.579V59.2927H327.701ZM318.335 56.1707V59.2927H315.213V56.1707H318.335ZM315.213 56.1707V59.2927H312.091V56.1707H315.213ZM315.213 53.0488V56.1707H312.091V53.0488H315.213ZM318.335 53.0488V56.1707H315.213V53.0488H318.335ZM321.457 53.0488V56.1707H318.335V53.0488H321.457ZM324.579 53.0488V56.1707H321.457V53.0488H324.579ZM327.701 53.0488V56.1707H324.579V53.0488H327.701ZM327.701 49.9268V53.0488H324.579V49.9268H327.701ZM324.579 49.9268V53.0488H321.457V49.9268H324.579ZM321.457 49.9268V53.0488H318.335V49.9268H321.457ZM318.335 49.9268V53.0488H315.213V49.9268H318.335ZM315.213 49.9268V53.0488H312.091V49.9268H315.213ZM321.457 46.8049V49.9268H318.335V46.8049H321.457ZM324.579 46.8049V49.9268H321.457V46.8049H324.579ZM318.335 46.8049V49.9268H315.213V46.8049H318.335ZM318.335 43.6829V46.8049H315.213V43.6829H318.335ZM315.213 43.6829V46.8049H312.091V43.6829H315.213ZM315.213 46.8049V49.9268H312.091V46.8049H315.213ZM312.091 46.8049V49.9268H308.97V46.8049H312.091ZM312.091 43.6829V46.8049H308.97V43.6829H312.091ZM312.091 49.9268V53.0488H308.97V49.9268H312.091ZM308.97 49.9268V53.0488H305.848V49.9268H308.97ZM308.97 53.0488V56.1707H305.848V53.0488H308.97ZM312.091 53.0488V56.1707H308.97V53.0488H312.091ZM305.848 53.0488V56.1707H302.726V53.0488H305.848ZM305.848 49.9268V53.0488H302.726V49.9268H305.848ZM305.848 46.8049V49.9268H302.726V46.8049H305.848ZM305.848 43.6829V46.8049H302.726V43.6829H305.848ZM308.97 43.6829V46.8049H305.848V43.6829H308.97ZM308.97 46.8049V49.9268H305.848V46.8049H308.97ZM302.726 43.6829V46.8049H299.604V43.6829H302.726ZM299.604 43.6829V46.8049H296.482V43.6829H299.604ZM296.482 43.6829V46.8049H293.36V43.6829H296.482ZM296.482 46.8049V49.9268H293.36V46.8049H296.482ZM296.482 49.9268V53.0488H293.36V49.9268H296.482ZM296.482 53.0488V56.1707H293.36V53.0488H296.482ZM299.604 53.0488V56.1707H296.482V53.0488H299.604ZM302.726 53.0488V56.1707H299.604V53.0488H302.726ZM302.726 49.9268V53.0488H299.604V49.9268H302.726ZM302.726 46.8049V49.9268H299.604V46.8049H302.726ZM299.604 46.8049V49.9268H296.482V46.8049H299.604ZM299.604 49.9268V53.0488H296.482V49.9268H299.604ZM293.36 49.9268V53.0488H290.238V49.9268H293.36ZM293.36 46.8049V49.9268H290.238V46.8049H293.36ZM290.238 46.8049V49.9268H287.116V46.8049H290.238ZM290.238 49.9268V53.0488H287.116V49.9268H290.238ZM287.116 49.9268V53.0488H283.994V49.9268H287.116ZM287.116 53.0488V56.1707H283.994V53.0488H287.116ZM287.116 56.1707V59.2927H283.994V56.1707H287.116ZM290.238 56.1707V59.2927H287.116V56.1707H290.238ZM290.238 53.0488V56.1707H287.116V53.0488H290.238ZM293.36 53.0488V56.1707H290.238V53.0488H293.36ZM293.36 56.1707V59.2927H290.238V56.1707H293.36ZM296.482 56.1707V59.2927H293.36V56.1707H296.482ZM299.604 56.1707V59.2927H296.482V56.1707H299.604ZM283.994 56.1707V59.2927H280.872V56.1707H283.994ZM283.994 59.2927V62.4146H280.872V59.2927H283.994ZM283.994 62.4146V65.5366H280.872V62.4146H283.994ZM283.994 65.5366V68.6585H280.872V65.5366H283.994ZM283.994 68.6585V71.7805H280.872V68.6585H283.994ZM283.994 71.7805V74.9024H280.872V71.7805H283.994ZM283.994 74.9024V78.0244H280.872V74.9024H283.994ZM283.994 78.0244V81.1463H280.872V78.0244H283.994ZM283.994 81.1463V84.2683H280.872V81.1463H283.994ZM283.994 84.2683V87.3902H280.872V84.2683H283.994ZM287.116 84.2683V87.3902H283.994V84.2683H287.116ZM287.116 87.3902V90.5122H283.994V87.3902H287.116ZM283.994 87.3902V90.5122H280.872V87.3902H283.994ZM290.238 87.3902V90.5122H287.116V87.3902H290.238ZM293.36 87.3902V90.5122H290.238V87.3902H293.36ZM296.482 87.3902V90.5122H293.36V87.3902H296.482ZM299.604 87.3902V90.5122H296.482V87.3902H299.604ZM296.482 84.2683V87.3902H293.36V84.2683H296.482ZM296.482 81.1463V84.2683H293.36V81.1463H296.482ZM296.482 78.0244V81.1463H293.36V78.0244H296.482ZM296.482 74.9024V78.0244H293.36V74.9024H296.482ZM296.482 71.7805V74.9024H293.36V71.7805H296.482ZM296.482 68.6585V71.7805H293.36V68.6585H296.482ZM296.482 65.5366V68.6585H293.36V65.5366H296.482ZM296.482 62.4146V65.5366H293.36V62.4146H296.482ZM296.482 59.2927V62.4146H293.36V59.2927H296.482ZM293.36 59.2927V62.4146H290.238V59.2927H293.36ZM290.238 59.2927V62.4146H287.116V59.2927H290.238ZM287.116 59.2927V62.4146H283.994V59.2927H287.116ZM287.116 62.4146V65.5366H283.994V62.4146H287.116ZM287.116 65.5366V68.6585H283.994V65.5366H287.116ZM287.116 68.6585V71.7805H283.994V68.6585H287.116ZM287.116 71.7805V74.9024H283.994V71.7805H287.116ZM287.116 74.9024V78.0244H283.994V74.9024H287.116ZM287.116 78.0244V81.1463H283.994V78.0244H287.116ZM287.116 81.1463V84.2683H283.994V81.1463H287.116ZM290.238 84.2683V87.3902H287.116V84.2683H290.238ZM293.36 84.2683V87.3902H290.238V84.2683H293.36ZM293.36 81.1463V84.2683H290.238V81.1463H293.36ZM293.36 78.0244V81.1463H290.238V78.0244H293.36ZM293.36 74.9024V78.0244H290.238V74.9024H293.36ZM293.36 71.7805V74.9024H290.238V71.7805H293.36ZM290.238 71.7805V74.9024H287.116V71.7805H290.238ZM290.238 68.6585V71.7805H287.116V68.6585H290.238ZM290.238 65.5366V68.6585H287.116V65.5366H290.238ZM290.238 62.4146V65.5366H287.116V62.4146H290.238ZM293.36 62.4146V65.5366H290.238V62.4146H293.36ZM293.36 65.5366V68.6585H290.238V65.5366H293.36ZM293.36 68.6585V71.7805H290.238V68.6585H293.36ZM290.238 78.0244V81.1463H287.116V78.0244H290.238ZM290.238 81.1463V84.2683H287.116V81.1463H290.238ZM290.238 74.9024V78.0244H287.116V74.9024H290.238ZM318.335 81.1463V84.2683H315.213V81.1463H318.335ZM318.335 84.2683V87.3902H315.213V84.2683H318.335ZM321.457 84.2683V87.3902H318.335V84.2683H321.457ZM324.579 84.2683V87.3902H321.457V84.2683H324.579ZM327.701 84.2683V87.3902H324.579V84.2683H327.701ZM330.823 84.2683V87.3902H327.701V84.2683H330.823ZM330.823 81.1463V84.2683H327.701V81.1463H330.823ZM327.701 81.1463V84.2683H324.579V81.1463H327.701ZM324.579 81.1463V84.2683H321.457V81.1463H324.579ZM321.457 81.1463V84.2683H318.335V81.1463H321.457ZM330.823 87.3902V90.5122H327.701V87.3902H330.823ZM327.701 87.3902V90.5122H324.579V87.3902H327.701ZM324.579 87.3902V90.5122H321.457V87.3902H324.579ZM321.457 87.3902V90.5122H318.335V87.3902H321.457ZM318.335 87.3902V90.5122H315.213V87.3902H318.335ZM315.213 87.3902V90.5122H312.091V87.3902H315.213ZM315.213 90.5122V93.6341H312.091V90.5122H315.213ZM318.335 90.5122V93.6341H315.213V90.5122H318.335ZM321.457 90.5122V93.6341H318.335V90.5122H321.457ZM324.579 90.5122V93.6341H321.457V90.5122H324.579ZM324.579 93.6341V96.7561H321.457V93.6341H324.579ZM327.701 93.6341V96.7561H324.579V93.6341H327.701ZM327.701 90.5122V93.6341H324.579V90.5122H327.701ZM324.579 96.7561V99.878H321.457V96.7561H324.579ZM321.457 96.7561V99.878H318.335V96.7561H321.457ZM321.457 93.6341V96.7561H318.335V93.6341H321.457ZM318.335 93.6341V96.7561H315.213V93.6341H318.335ZM318.335 96.7561V99.878H315.213V96.7561H318.335ZM318.335 99.878V103H315.213V99.878H318.335ZM315.213 99.878V103H312.091V99.878H315.213ZM312.091 99.878V103H308.97V99.878H312.091ZM308.97 99.878V103H305.848V99.878H308.97ZM305.848 99.878V103H302.726V99.878H305.848ZM302.726 99.878V103H299.604V99.878H302.726ZM299.604 99.878V103H296.482V99.878H299.604ZM296.482 99.878V103H293.36V99.878H296.482ZM299.604 96.7561V99.878H296.482V96.7561H299.604ZM302.726 96.7561V99.878H299.604V96.7561H302.726ZM305.848 96.7561V99.878H302.726V96.7561H305.848ZM308.97 96.7561V99.878H305.848V96.7561H308.97ZM312.091 96.7561V99.878H308.97V96.7561H312.091ZM315.213 96.7561V99.878H312.091V96.7561H315.213ZM315.213 93.6341V96.7561H312.091V93.6341H315.213ZM312.091 93.6341V96.7561H308.97V93.6341H312.091ZM308.97 93.6341V96.7561H305.848V93.6341H308.97ZM305.848 93.6341V96.7561H302.726V93.6341H305.848ZM302.726 93.6341V96.7561H299.604V93.6341H302.726ZM299.604 93.6341V96.7561H296.482V93.6341H299.604ZM296.482 96.7561V99.878H293.36V96.7561H296.482ZM293.36 96.7561V99.878H290.238V96.7561H293.36ZM290.238 96.7561V99.878H287.116V96.7561H290.238ZM290.238 93.6341V96.7561H287.116V93.6341H290.238ZM287.116 93.6341V96.7561H283.994V93.6341H287.116ZM287.116 90.5122V93.6341H283.994V90.5122H287.116ZM290.238 90.5122V93.6341H287.116V90.5122H290.238ZM293.36 90.5122V93.6341H290.238V90.5122H293.36ZM296.482 90.5122V93.6341H293.36V90.5122H296.482ZM299.604 90.5122V93.6341H296.482V90.5122H299.604ZM302.726 90.5122V93.6341H299.604V90.5122H302.726ZM305.848 90.5122V93.6341H302.726V90.5122H305.848ZM308.97 90.5122V93.6341H305.848V90.5122H308.97ZM312.091 90.5122V93.6341H308.97V90.5122H312.091ZM296.482 93.6341V96.7561H293.36V93.6341H296.482ZM293.36 93.6341V96.7561H290.238V93.6341H293.36ZM318.335 65.5366V68.6585H315.213V65.5366H318.335ZM318.335 68.6585V71.7805H315.213V68.6585H318.335ZM321.457 68.6585V71.7805H318.335V68.6585H321.457ZM324.579 68.6585V71.7805H321.457V68.6585H324.579ZM327.701 68.6585V71.7805H324.579V68.6585H327.701ZM330.823 68.6585V71.7805H327.701V68.6585H330.823ZM330.823 65.5366V68.6585H327.701V65.5366H330.823ZM327.701 65.5366V68.6585H324.579V65.5366H327.701ZM324.579 65.5366V68.6585H321.457V65.5366H324.579ZM321.457 65.5366V68.6585H318.335V65.5366H321.457ZM321.457 71.7805V74.9024H318.335V71.7805H321.457ZM324.579 71.7805V74.9024H321.457V71.7805H324.579ZM324.579 74.9024V78.0244H321.457V74.9024H324.579ZM327.701 74.9024V78.0244H324.579V74.9024H327.701ZM327.701 71.7805V74.9024H324.579V71.7805H327.701ZM330.823 71.7805V74.9024H327.701V71.7805H330.823ZM330.823 74.9024V78.0244H327.701V74.9024H330.823ZM330.823 78.0244V81.1463H327.701V78.0244H330.823ZM327.701 78.0244V81.1463H324.579V78.0244H327.701ZM324.579 78.0244V81.1463H321.457V78.0244H324.579ZM321.457 78.0244V81.1463H318.335V78.0244H321.457ZM321.457 74.9024V78.0244H318.335V74.9024H321.457ZM318.335 74.9024V78.0244H315.213V74.9024H318.335ZM318.335 71.7805V74.9024H315.213V71.7805H318.335ZM318.335 78.0244V81.1463H315.213V78.0244H318.335ZM355.854 31.1951V34.3171H352.732V31.1951H355.854ZM355.854 34.3171V37.439H352.732V34.3171H355.854ZM355.854 37.439V40.561H352.732V37.439H355.854ZM355.854 40.561V43.6829H352.732V40.561H355.854ZM355.854 43.6829V46.8049H352.732V43.6829H355.854ZM355.854 46.8049V49.9268H352.732V46.8049H355.854ZM355.854 49.9268V53.0488H352.732V49.9268H355.854ZM355.854 53.0488V56.1707H352.732V53.0488H355.854ZM358.976 53.0488V56.1707H355.854V53.0488H358.976ZM362.098 53.0488V56.1707H358.976V53.0488H362.098ZM365.22 53.0488V56.1707H362.098V53.0488H365.22ZM368.341 53.0488V56.1707H365.22V53.0488H368.341ZM355.854 59.2927V62.4146H352.732V59.2927H355.854ZM352.732 59.2927V62.4146H349.61V59.2927H352.732ZM352.732 56.1707V59.2927H349.61V56.1707H352.732ZM355.854 56.1707V59.2927H352.732V56.1707H355.854ZM355.854 62.4146V65.5366H352.732V62.4146H355.854ZM352.732 62.4146V65.5366H349.61V62.4146H352.732ZM349.61 62.4146V65.5366H346.488V62.4146H349.61ZM346.488 62.4146V65.5366H343.366V62.4146H346.488ZM343.366 62.4146V65.5366H340.244V62.4146H343.366ZM337.122 53.0488V56.1707H334V53.0488H337.122ZM340.244 53.0488V56.1707H337.122V53.0488H340.244ZM343.366 53.0488V56.1707H340.244V53.0488H343.366ZM346.488 53.0488V56.1707H343.366V53.0488H346.488ZM349.61 53.0488V56.1707H346.488V53.0488H349.61ZM352.732 53.0488V56.1707H349.61V53.0488H352.732ZM349.61 59.2927V62.4146H346.488V59.2927H349.61ZM349.61 56.1707V59.2927H346.488V56.1707H349.61ZM346.488 56.1707V59.2927H343.366V56.1707H346.488ZM343.366 56.1707V59.2927H340.244V56.1707H343.366ZM343.366 59.2927V62.4146H340.244V59.2927H343.366ZM346.488 59.2927V62.4146H343.366V59.2927H346.488ZM352.732 34.3171V37.439H349.61V34.3171H352.732ZM352.732 37.439V40.561H349.61V37.439H352.732ZM349.61 37.439V40.561H346.488V37.439H349.61ZM349.61 40.561V43.6829H346.488V40.561H349.61ZM349.61 43.6829V46.8049H346.488V43.6829H349.61ZM346.488 40.561V43.6829H343.366V40.561H346.488ZM346.488 43.6829V46.8049H343.366V43.6829H346.488ZM343.366 43.6829V46.8049H340.244V43.6829H343.366ZM343.366 46.8049V49.9268H340.244V46.8049H343.366ZM343.366 49.9268V53.0488H340.244V49.9268H343.366ZM349.61 49.9268V53.0488H346.488V49.9268H349.61ZM352.732 49.9268V53.0488H349.61V49.9268H352.732ZM352.732 46.8049V49.9268H349.61V46.8049H352.732ZM352.732 43.6829V46.8049H349.61V43.6829H352.732ZM352.732 40.561V43.6829H349.61V40.561H352.732ZM349.61 46.8049V49.9268H346.488V46.8049H349.61ZM346.488 49.9268V53.0488H343.366V49.9268H346.488ZM346.488 46.8049V49.9268H343.366V46.8049H346.488ZM368.341 90.5122V93.6341H365.22V90.5122H368.341ZM368.341 93.6341V96.7561H365.22V93.6341H368.341ZM368.341 99.878V103H365.22V99.878H368.341ZM365.22 99.878V103H362.098V99.878H365.22ZM362.098 99.878V103H358.976V99.878H362.098ZM358.976 99.878V103H355.854V99.878H358.976ZM355.854 99.878V103H352.732V99.878H355.854ZM355.854 96.7561V99.878H352.732V96.7561H355.854ZM352.732 96.7561V99.878H349.61V96.7561H352.732ZM349.61 96.7561V99.878H346.488V96.7561H349.61ZM349.61 93.6341V96.7561H346.488V93.6341H349.61ZM346.488 93.6341V96.7561H343.366V93.6341H346.488ZM346.488 90.5122V93.6341H343.366V90.5122H346.488ZM346.488 87.3902V90.5122H343.366V87.3902H346.488ZM343.366 87.3902V90.5122H340.244V87.3902H343.366ZM343.366 84.2683V87.3902H340.244V84.2683H343.366ZM343.366 81.1463V84.2683H340.244V81.1463H343.366ZM343.366 78.0244V81.1463H340.244V78.0244H343.366ZM343.366 74.9024V78.0244H340.244V74.9024H343.366ZM343.366 71.7805V74.9024H340.244V71.7805H343.366ZM343.366 68.6585V71.7805H340.244V68.6585H343.366ZM343.366 65.5366V68.6585H340.244V65.5366H343.366ZM346.488 65.5366V68.6585H343.366V65.5366H346.488ZM349.61 65.5366V68.6585H346.488V65.5366H349.61ZM352.732 65.5366V68.6585H349.61V65.5366H352.732ZM355.854 65.5366V68.6585H352.732V65.5366H355.854ZM355.854 68.6585V71.7805H352.732V68.6585H355.854ZM355.854 71.7805V74.9024H352.732V71.7805H355.854ZM355.854 74.9024V78.0244H352.732V74.9024H355.854ZM355.854 78.0244V81.1463H352.732V78.0244H355.854ZM355.854 81.1463V84.2683H352.732V81.1463H355.854ZM355.854 84.2683V87.3902H352.732V84.2683H355.854ZM355.854 87.3902V90.5122H352.732V87.3902H355.854ZM358.976 87.3902V90.5122H355.854V87.3902H358.976ZM358.976 90.5122V93.6341H355.854V90.5122H358.976ZM362.098 90.5122V93.6341H358.976V90.5122H362.098ZM362.098 93.6341V96.7561H358.976V93.6341H362.098ZM365.22 93.6341V96.7561H362.098V93.6341H365.22ZM365.22 90.5122V93.6341H362.098V90.5122H365.22ZM368.341 96.7561V99.878H365.22V96.7561H368.341ZM365.22 96.7561V99.878H362.098V96.7561H365.22ZM362.098 96.7561V99.878H358.976V96.7561H362.098ZM358.976 96.7561V99.878H355.854V96.7561H358.976ZM358.976 93.6341V96.7561H355.854V93.6341H358.976ZM355.854 93.6341V96.7561H352.732V93.6341H355.854ZM355.854 90.5122V93.6341H352.732V90.5122H355.854ZM352.732 90.5122V93.6341H349.61V90.5122H352.732ZM352.732 93.6341V96.7561H349.61V93.6341H352.732ZM349.61 90.5122V93.6341H346.488V90.5122H349.61ZM352.732 87.3902V90.5122H349.61V87.3902H352.732ZM352.732 84.2683V87.3902H349.61V84.2683H352.732ZM349.61 87.3902V90.5122H346.488V87.3902H349.61ZM349.61 84.2683V87.3902H346.488V84.2683H349.61ZM352.732 81.1463V84.2683H349.61V81.1463H352.732ZM352.732 78.0244V81.1463H349.61V78.0244H352.732ZM352.732 74.9024V78.0244H349.61V74.9024H352.732ZM352.732 71.7805V74.9024H349.61V71.7805H352.732ZM352.732 68.6585V71.7805H349.61V68.6585H352.732ZM349.61 68.6585V71.7805H346.488V68.6585H349.61ZM346.488 68.6585V71.7805H343.366V68.6585H346.488ZM346.488 71.7805V74.9024H343.366V71.7805H346.488ZM346.488 74.9024V78.0244H343.366V74.9024H346.488ZM346.488 78.0244V81.1463H343.366V78.0244H346.488ZM346.488 81.1463V84.2683H343.366V81.1463H346.488ZM346.488 84.2683V87.3902H343.366V84.2683H346.488ZM349.61 81.1463V84.2683H346.488V81.1463H349.61ZM349.61 78.0244V81.1463H346.488V78.0244H349.61ZM349.61 74.9024V78.0244H346.488V74.9024H349.61ZM349.61 71.7805V74.9024H346.488V71.7805H349.61ZM368.341 46.8049V49.9268H365.22V46.8049H368.341ZM365.22 46.8049V49.9268H362.098V46.8049H365.22ZM365.22 49.9268V53.0488H362.098V49.9268H365.22ZM368.341 49.9268V53.0488H365.22V49.9268H368.341ZM362.098 49.9268V53.0488H358.976V49.9268H362.098ZM358.976 49.9268V53.0488H355.854V49.9268H358.976ZM358.976 46.8049V49.9268H355.854V46.8049H358.976ZM362.098 46.8049V49.9268H358.976V46.8049H362.098ZM343.366 40.561V43.6829H340.244V40.561H343.366ZM346.488 37.439V40.561H343.366V37.439H346.488ZM349.61 34.3171V37.439H346.488V34.3171H349.61ZM352.732 31.1951V34.3171H349.61V31.1951H352.732ZM340.244 46.8049V49.9268H337.122V46.8049H340.244ZM340.244 49.9268V53.0488H337.122V49.9268H340.244ZM337.122 49.9268V53.0488H334V49.9268H337.122ZM337.122 46.8049V49.9268H334V46.8049H337.122ZM355.854 28.0732V31.1951H352.732V28.0732H355.854ZM337.122 56.1707V59.2927H334V56.1707H337.122ZM340.244 56.1707V59.2927H337.122V56.1707H340.244ZM358.976 56.1707V59.2927H355.854V56.1707H358.976ZM362.098 56.1707V59.2927H358.976V56.1707H362.098ZM365.22 56.1707V59.2927H362.098V56.1707H365.22ZM368.341 56.1707V59.2927H365.22V56.1707H368.341ZM412.085 62.4146V65.5366H408.963V62.4146H412.085ZM415.207 62.4146V65.5366H412.085V62.4146H415.207ZM418.329 62.4146V65.5366H415.207V62.4146H418.329ZM421.451 62.4146V65.5366H418.329V62.4146H421.451ZM424.573 62.4146V65.5366H421.451V62.4146H424.573ZM424.573 59.2927V62.4146H421.451V59.2927H424.573ZM424.573 56.1707V59.2927H421.451V56.1707H424.573ZM421.451 56.1707V59.2927H418.329V56.1707H421.451ZM418.329 56.1707V59.2927H415.207V56.1707H418.329ZM415.207 56.1707V59.2927H412.085V56.1707H415.207ZM415.207 59.2927V62.4146H412.085V59.2927H415.207ZM412.085 59.2927V62.4146H408.963V59.2927H412.085ZM418.329 59.2927V62.4146H415.207V59.2927H418.329ZM421.451 59.2927V62.4146H418.329V59.2927H421.451ZM412.085 56.1707V59.2927H408.963V56.1707H412.085ZM408.963 56.1707V59.2927H405.841V56.1707H408.963ZM408.963 53.0488V56.1707H405.841V53.0488H408.963ZM412.085 53.0488V56.1707H408.963V53.0488H412.085ZM415.207 53.0488V56.1707H412.085V53.0488H415.207ZM418.329 53.0488V56.1707H415.207V53.0488H418.329ZM421.451 53.0488V56.1707H418.329V53.0488H421.451ZM421.451 49.9268V53.0488H418.329V49.9268H421.451ZM418.329 49.9268V53.0488H415.207V49.9268H418.329ZM415.207 49.9268V53.0488H412.085V49.9268H415.207ZM412.085 49.9268V53.0488H408.963V49.9268H412.085ZM408.963 49.9268V53.0488H405.841V49.9268H408.963ZM415.207 46.8049V49.9268H412.085V46.8049H415.207ZM418.329 46.8049V49.9268H415.207V46.8049H418.329ZM412.085 46.8049V49.9268H408.963V46.8049H412.085ZM412.085 43.6829V46.8049H408.963V43.6829H412.085ZM408.963 43.6829V46.8049H405.841V43.6829H408.963ZM408.963 46.8049V49.9268H405.841V46.8049H408.963ZM405.841 46.8049V49.9268H402.72V46.8049H405.841ZM405.841 43.6829V46.8049H402.72V43.6829H405.841ZM405.841 49.9268V53.0488H402.72V49.9268H405.841ZM402.72 49.9268V53.0488H399.598V49.9268H402.72ZM402.72 53.0488V56.1707H399.598V53.0488H402.72ZM405.841 53.0488V56.1707H402.72V53.0488H405.841ZM399.598 53.0488V56.1707H396.476V53.0488H399.598ZM399.598 49.9268V53.0488H396.476V49.9268H399.598ZM399.598 46.8049V49.9268H396.476V46.8049H399.598ZM399.598 43.6829V46.8049H396.476V43.6829H399.598ZM402.72 43.6829V46.8049H399.598V43.6829H402.72ZM402.72 46.8049V49.9268H399.598V46.8049H402.72ZM396.476 43.6829V46.8049H393.354V43.6829H396.476ZM393.354 43.6829V46.8049H390.232V43.6829H393.354ZM390.232 43.6829V46.8049H387.11V43.6829H390.232ZM390.232 46.8049V49.9268H387.11V46.8049H390.232ZM390.232 49.9268V53.0488H387.11V49.9268H390.232ZM390.232 53.0488V56.1707H387.11V53.0488H390.232ZM393.354 53.0488V56.1707H390.232V53.0488H393.354ZM396.476 53.0488V56.1707H393.354V53.0488H396.476ZM396.476 49.9268V53.0488H393.354V49.9268H396.476ZM396.476 46.8049V49.9268H393.354V46.8049H396.476ZM393.354 46.8049V49.9268H390.232V46.8049H393.354ZM393.354 49.9268V53.0488H390.232V49.9268H393.354ZM387.11 49.9268V53.0488H383.988V49.9268H387.11ZM387.11 46.8049V49.9268H383.988V46.8049H387.11ZM383.988 46.8049V49.9268H380.866V46.8049H383.988ZM383.988 49.9268V53.0488H380.866V49.9268H383.988ZM380.866 49.9268V53.0488H377.744V49.9268H380.866ZM380.866 53.0488V56.1707H377.744V53.0488H380.866ZM380.866 56.1707V59.2927H377.744V56.1707H380.866ZM383.988 56.1707V59.2927H380.866V56.1707H383.988ZM383.988 53.0488V56.1707H380.866V53.0488H383.988ZM387.11 53.0488V56.1707H383.988V53.0488H387.11ZM387.11 56.1707V59.2927H383.988V56.1707H387.11ZM390.232 56.1707V59.2927H387.11V56.1707H390.232ZM393.354 56.1707V59.2927H390.232V56.1707H393.354ZM377.744 56.1707V59.2927H374.622V56.1707H377.744ZM377.744 59.2927V62.4146H374.622V59.2927H377.744ZM377.744 62.4146V65.5366H374.622V62.4146H377.744ZM377.744 65.5366V68.6585H374.622V65.5366H377.744ZM377.744 68.6585V71.7805H374.622V68.6585H377.744ZM377.744 71.7805V74.9024H374.622V71.7805H377.744ZM377.744 74.9024V78.0244H374.622V74.9024H377.744ZM377.744 78.0244V81.1463H374.622V78.0244H377.744ZM377.744 81.1463V84.2683H374.622V81.1463H377.744ZM377.744 84.2683V87.3902H374.622V84.2683H377.744ZM380.866 84.2683V87.3902H377.744V84.2683H380.866ZM380.866 87.3902V90.5122H377.744V87.3902H380.866ZM377.744 87.3902V90.5122H374.622V87.3902H377.744ZM383.988 87.3902V90.5122H380.866V87.3902H383.988ZM387.11 87.3902V90.5122H383.988V87.3902H387.11ZM390.232 87.3902V90.5122H387.11V87.3902H390.232ZM393.354 87.3902V90.5122H390.232V87.3902H393.354ZM390.232 84.2683V87.3902H387.11V84.2683H390.232ZM390.232 81.1463V84.2683H387.11V81.1463H390.232ZM390.232 78.0244V81.1463H387.11V78.0244H390.232ZM390.232 74.9024V78.0244H387.11V74.9024H390.232ZM390.232 71.7805V74.9024H387.11V71.7805H390.232ZM390.232 68.6585V71.7805H387.11V68.6585H390.232ZM390.232 65.5366V68.6585H387.11V65.5366H390.232ZM390.232 62.4146V65.5366H387.11V62.4146H390.232ZM390.232 59.2927V62.4146H387.11V59.2927H390.232ZM387.11 59.2927V62.4146H383.988V59.2927H387.11ZM383.988 59.2927V62.4146H380.866V59.2927H383.988ZM380.866 59.2927V62.4146H377.744V59.2927H380.866ZM380.866 62.4146V65.5366H377.744V62.4146H380.866ZM380.866 65.5366V68.6585H377.744V65.5366H380.866ZM380.866 68.6585V71.7805H377.744V68.6585H380.866ZM380.866 71.7805V74.9024H377.744V71.7805H380.866ZM380.866 74.9024V78.0244H377.744V74.9024H380.866ZM380.866 78.0244V81.1463H377.744V78.0244H380.866ZM380.866 81.1463V84.2683H377.744V81.1463H380.866ZM383.988 84.2683V87.3902H380.866V84.2683H383.988ZM387.11 84.2683V87.3902H383.988V84.2683H387.11ZM387.11 81.1463V84.2683H383.988V81.1463H387.11ZM387.11 78.0244V81.1463H383.988V78.0244H387.11ZM387.11 74.9024V78.0244H383.988V74.9024H387.11ZM387.11 71.7805V74.9024H383.988V71.7805H387.11ZM383.988 71.7805V74.9024H380.866V71.7805H383.988ZM383.988 68.6585V71.7805H380.866V68.6585H383.988ZM383.988 65.5366V68.6585H380.866V65.5366H383.988ZM383.988 62.4146V65.5366H380.866V62.4146H383.988ZM387.11 62.4146V65.5366H383.988V62.4146H387.11ZM387.11 65.5366V68.6585H383.988V65.5366H387.11ZM387.11 68.6585V71.7805H383.988V68.6585H387.11ZM383.988 78.0244V81.1463H380.866V78.0244H383.988ZM383.988 81.1463V84.2683H380.866V81.1463H383.988ZM383.988 74.9024V78.0244H380.866V74.9024H383.988ZM412.085 81.1463V84.2683H408.963V81.1463H412.085ZM412.085 84.2683V87.3902H408.963V84.2683H412.085ZM415.207 84.2683V87.3902H412.085V84.2683H415.207ZM418.329 84.2683V87.3902H415.207V84.2683H418.329ZM421.451 84.2683V87.3902H418.329V84.2683H421.451ZM424.573 84.2683V87.3902H421.451V84.2683H424.573ZM424.573 81.1463V84.2683H421.451V81.1463H424.573ZM421.451 81.1463V84.2683H418.329V81.1463H421.451ZM418.329 81.1463V84.2683H415.207V81.1463H418.329ZM415.207 81.1463V84.2683H412.085V81.1463H415.207ZM424.573 87.3902V90.5122H421.451V87.3902H424.573ZM421.451 87.3902V90.5122H418.329V87.3902H421.451ZM418.329 87.3902V90.5122H415.207V87.3902H418.329ZM415.207 87.3902V90.5122H412.085V87.3902H415.207ZM412.085 87.3902V90.5122H408.963V87.3902H412.085ZM408.963 87.3902V90.5122H405.841V87.3902H408.963ZM408.963 90.5122V93.6341H405.841V90.5122H408.963ZM412.085 90.5122V93.6341H408.963V90.5122H412.085ZM415.207 90.5122V93.6341H412.085V90.5122H415.207ZM418.329 90.5122V93.6341H415.207V90.5122H418.329ZM418.329 93.6341V96.7561H415.207V93.6341H418.329ZM421.451 93.6341V96.7561H418.329V93.6341H421.451ZM421.451 90.5122V93.6341H418.329V90.5122H421.451ZM418.329 96.7561V99.878H415.207V96.7561H418.329ZM415.207 96.7561V99.878H412.085V96.7561H415.207ZM415.207 93.6341V96.7561H412.085V93.6341H415.207ZM412.085 93.6341V96.7561H408.963V93.6341H412.085ZM412.085 96.7561V99.878H408.963V96.7561H412.085ZM412.085 99.878V103H408.963V99.878H412.085ZM408.963 99.878V103H405.841V99.878H408.963ZM405.841 99.878V103H402.72V99.878H405.841ZM402.72 99.878V103H399.598V99.878H402.72ZM399.598 99.878V103H396.476V99.878H399.598ZM396.476 99.878V103H393.354V99.878H396.476ZM393.354 99.878V103H390.232V99.878H393.354ZM390.232 99.878V103H387.11V99.878H390.232ZM393.354 96.7561V99.878H390.232V96.7561H393.354ZM396.476 96.7561V99.878H393.354V96.7561H396.476ZM399.598 96.7561V99.878H396.476V96.7561H399.598ZM402.72 96.7561V99.878H399.598V96.7561H402.72ZM405.841 96.7561V99.878H402.72V96.7561H405.841ZM408.963 96.7561V99.878H405.841V96.7561H408.963ZM408.963 93.6341V96.7561H405.841V93.6341H408.963ZM405.841 93.6341V96.7561H402.72V93.6341H405.841ZM402.72 93.6341V96.7561H399.598V93.6341H402.72ZM399.598 93.6341V96.7561H396.476V93.6341H399.598ZM396.476 93.6341V96.7561H393.354V93.6341H396.476ZM393.354 93.6341V96.7561H390.232V93.6341H393.354ZM390.232 96.7561V99.878H387.11V96.7561H390.232ZM387.11 96.7561V99.878H383.988V96.7561H387.11ZM383.988 96.7561V99.878H380.866V96.7561H383.988ZM383.988 93.6341V96.7561H380.866V93.6341H383.988ZM380.866 93.6341V96.7561H377.744V93.6341H380.866ZM380.866 90.5122V93.6341H377.744V90.5122H380.866ZM383.988 90.5122V93.6341H380.866V90.5122H383.988ZM387.11 90.5122V93.6341H383.988V90.5122H387.11ZM390.232 90.5122V93.6341H387.11V90.5122H390.232ZM393.354 90.5122V93.6341H390.232V90.5122H393.354ZM396.476 90.5122V93.6341H393.354V90.5122H396.476ZM399.598 90.5122V93.6341H396.476V90.5122H399.598ZM402.72 90.5122V93.6341H399.598V90.5122H402.72ZM405.841 90.5122V93.6341H402.72V90.5122H405.841ZM390.232 93.6341V96.7561H387.11V93.6341H390.232ZM387.11 93.6341V96.7561H383.988V93.6341H387.11ZM412.085 65.5366V68.6585H408.963V65.5366H412.085ZM412.085 68.6585V71.7805H408.963V68.6585H412.085ZM415.207 68.6585V71.7805H412.085V68.6585H415.207ZM418.329 68.6585V71.7805H415.207V68.6585H418.329ZM421.451 68.6585V71.7805H418.329V68.6585H421.451ZM424.573 68.6585V71.7805H421.451V68.6585H424.573ZM424.573 65.5366V68.6585H421.451V65.5366H424.573ZM421.451 65.5366V68.6585H418.329V65.5366H421.451ZM418.329 65.5366V68.6585H415.207V65.5366H418.329ZM415.207 65.5366V68.6585H412.085V65.5366H415.207ZM415.207 71.7805V74.9024H412.085V71.7805H415.207ZM418.329 71.7805V74.9024H415.207V71.7805H418.329ZM418.329 74.9024V78.0244H415.207V74.9024H418.329ZM421.451 74.9024V78.0244H418.329V74.9024H421.451ZM421.451 71.7805V74.9024H418.329V71.7805H421.451ZM424.573 71.7805V74.9024H421.451V71.7805H424.573ZM424.573 74.9024V78.0244H421.451V74.9024H424.573ZM424.573 78.0244V81.1463H421.451V78.0244H424.573ZM421.451 78.0244V81.1463H418.329V78.0244H421.451ZM418.329 78.0244V81.1463H415.207V78.0244H418.329ZM415.207 78.0244V81.1463H412.085V78.0244H415.207ZM415.207 74.9024V78.0244H412.085V74.9024H415.207ZM412.085 74.9024V78.0244H408.963V74.9024H412.085ZM412.085 71.7805V74.9024H408.963V71.7805H412.085ZM412.085 78.0244V81.1463H408.963V78.0244H412.085ZM480.823 43.6829V46.8049H477.701V43.6829H480.823ZM477.701 43.6829V46.8049H474.579V43.6829H477.701ZM474.579 43.6829V46.8049H471.457V43.6829H474.579ZM471.457 43.6829V46.8049H468.335V43.6829H471.457ZM468.335 43.6829V46.8049H465.213V43.6829H468.335ZM468.335 46.8049V49.9268H465.213V46.8049H468.335ZM468.335 49.9268V53.0488H465.213V49.9268H468.335ZM468.335 53.0488V56.1707H465.213V53.0488H468.335ZM468.335 56.1707V59.2927H465.213V56.1707H468.335ZM468.335 59.2927V62.4146H465.213V59.2927H468.335ZM468.335 62.4146V65.5366H465.213V62.4146H468.335ZM468.335 65.5366V68.6585H465.213V65.5366H468.335ZM468.335 68.6585V71.7805H465.213V68.6585H468.335ZM468.335 71.7805V74.9024H465.213V71.7805H468.335ZM468.335 74.9024V78.0244H465.213V74.9024H468.335ZM468.335 78.0244V81.1463H465.213V78.0244H468.335ZM468.335 81.1463V84.2683H465.213V81.1463H468.335ZM468.335 84.2683V87.3902H465.213V84.2683H468.335ZM468.335 87.3902V90.5122H465.213V87.3902H468.335ZM471.457 90.5122V93.6341H468.335V90.5122H471.457ZM474.579 90.5122V93.6341H471.457V90.5122H474.579ZM477.701 90.5122V93.6341H474.579V90.5122H477.701ZM480.823 90.5122V93.6341H477.701V90.5122H480.823ZM480.823 87.3902V90.5122H477.701V87.3902H480.823ZM480.823 84.2683V87.3902H477.701V84.2683H480.823ZM480.823 81.1463V84.2683H477.701V81.1463H480.823ZM480.823 78.0244V81.1463H477.701V78.0244H480.823ZM480.823 74.9024V78.0244H477.701V74.9024H480.823ZM480.823 71.7805V74.9024H477.701V71.7805H480.823ZM480.823 68.6585V71.7805H477.701V68.6585H480.823ZM480.823 65.5366V68.6585H477.701V65.5366H480.823ZM480.823 62.4146V65.5366H477.701V62.4146H480.823ZM480.823 59.2927V62.4146H477.701V59.2927H480.823ZM480.823 56.1707V59.2927H477.701V56.1707H480.823ZM480.823 53.0488V56.1707H477.701V53.0488H480.823ZM477.701 49.9268V53.0488H474.579V49.9268H477.701ZM477.701 46.8049V49.9268H474.579V46.8049H477.701ZM480.823 46.8049V49.9268H477.701V46.8049H480.823ZM480.823 49.9268V53.0488H477.701V49.9268H480.823ZM474.579 49.9268V53.0488H471.457V49.9268H474.579ZM471.457 49.9268V53.0488H468.335V49.9268H471.457ZM471.457 46.8049V49.9268H468.335V46.8049H471.457ZM474.579 46.8049V49.9268H471.457V46.8049H474.579ZM474.579 53.0488V56.1707H471.457V53.0488H474.579ZM474.579 56.1707V59.2927H471.457V56.1707H474.579ZM474.579 59.2927V62.4146H471.457V59.2927H474.579ZM474.579 62.4146V65.5366H471.457V62.4146H474.579ZM474.579 65.5366V68.6585H471.457V65.5366H474.579ZM474.579 68.6585V71.7805H471.457V68.6585H474.579ZM474.579 71.7805V74.9024H471.457V71.7805H474.579ZM474.579 74.9024V78.0244H471.457V74.9024H474.579ZM474.579 78.0244V81.1463H471.457V78.0244H474.579ZM471.457 81.1463V84.2683H468.335V81.1463H471.457ZM471.457 84.2683V87.3902H468.335V84.2683H471.457ZM471.457 87.3902V90.5122H468.335V87.3902H471.457ZM474.579 87.3902V90.5122H471.457V87.3902H474.579ZM474.579 84.2683V87.3902H471.457V84.2683H474.579ZM474.579 81.1463V84.2683H471.457V81.1463H474.579ZM471.457 56.1707V59.2927H468.335V56.1707H471.457ZM471.457 53.0488V56.1707H468.335V53.0488H471.457ZM471.457 59.2927V62.4146H468.335V59.2927H471.457ZM471.457 62.4146V65.5366H468.335V62.4146H471.457ZM471.457 65.5366V68.6585H468.335V65.5366H471.457ZM471.457 68.6585V71.7805H468.335V68.6585H471.457ZM471.457 71.7805V74.9024H468.335V71.7805H471.457ZM471.457 74.9024V78.0244H468.335V74.9024H471.457ZM471.457 78.0244V81.1463H468.335V78.0244H471.457ZM477.701 87.3902V90.5122H474.579V87.3902H477.701ZM477.701 84.2683V87.3902H474.579V84.2683H477.701ZM477.701 81.1463V84.2683H474.579V81.1463H477.701ZM477.701 78.0244V81.1463H474.579V78.0244H477.701ZM477.701 74.9024V78.0244H474.579V74.9024H477.701ZM477.701 71.7805V74.9024H474.579V71.7805H477.701ZM477.701 68.6585V71.7805H474.579V68.6585H477.701ZM477.701 65.5366V68.6585H474.579V65.5366H477.701ZM477.701 62.4146V65.5366H474.579V62.4146H477.701ZM477.701 59.2927V62.4146H474.579V59.2927H477.701ZM477.701 56.1707V59.2927H474.579V56.1707H477.701ZM477.701 53.0488V56.1707H474.579V53.0488H477.701ZM468.335 90.5122V93.6341H465.213V90.5122H468.335ZM468.335 93.6341V96.7561H465.213V93.6341H468.335ZM468.335 96.7561V99.878H465.213V96.7561H468.335ZM468.335 99.878V103H465.213V99.878H468.335ZM468.335 103V106.122H465.213V103H468.335ZM471.457 103V106.122H468.335V103H471.457ZM474.579 103V106.122H471.457V103H474.579ZM477.701 103V106.122H474.579V103H477.701ZM480.823 103V106.122H477.701V103H480.823ZM480.823 106.122V109.244H477.701V106.122H480.823ZM477.701 106.122V109.244H474.579V106.122H477.701ZM474.579 106.122V109.244H471.457V106.122H474.579ZM471.457 106.122V109.244H468.335V106.122H471.457ZM468.335 106.122V109.244H465.213V106.122H468.335ZM465.213 106.122V109.244H462.091V106.122H465.213ZM468.335 109.244V112.366H465.213V109.244H468.335ZM471.457 109.244V112.366H468.335V109.244H471.457ZM474.579 109.244V112.366H471.457V109.244H474.579ZM477.701 109.244V112.366H474.579V109.244H477.701ZM477.701 112.366V115.488H474.579V112.366H477.701ZM474.579 112.366V115.488H471.457V112.366H474.579ZM474.579 115.488V118.61H471.457V115.488H474.579ZM471.457 115.488V118.61H468.335V115.488H471.457ZM468.335 115.488V118.61H465.213V115.488H468.335ZM468.335 118.61V121.732H465.213V118.61H468.335ZM465.213 118.61V121.732H462.091V118.61H465.213ZM462.091 118.61V121.732H458.97V118.61H462.091ZM458.97 118.61V121.732H455.848V118.61H458.97ZM455.848 118.61V121.732H452.726V118.61H455.848ZM452.726 118.61V121.732H449.604V118.61H452.726ZM449.604 118.61V121.732H446.482V118.61H449.604ZM446.482 118.61V121.732H443.36V118.61H446.482ZM446.482 115.488V118.61H443.36V115.488H446.482ZM443.36 115.488V118.61H440.238V115.488H443.36ZM440.238 115.488V118.61H437.116V115.488H440.238ZM440.238 112.366V115.488H437.116V112.366H440.238ZM437.116 112.366V115.488H433.994V112.366H437.116ZM437.116 109.244V112.366H433.994V109.244H437.116ZM437.116 106.122V109.244H433.994V106.122H437.116ZM433.994 106.122V109.244H430.872V106.122H433.994ZM433.994 103V106.122H430.872V103H433.994ZM437.116 103V106.122H433.994V103H437.116ZM440.238 103V106.122H437.116V103H440.238ZM443.36 103V106.122H440.238V103H443.36ZM446.482 103V106.122H443.36V103H446.482ZM446.482 106.122V109.244H443.36V106.122H446.482ZM449.604 106.122V109.244H446.482V106.122H449.604ZM449.604 109.244V112.366H446.482V109.244H449.604ZM452.726 109.244V112.366H449.604V109.244H452.726ZM455.848 109.244V112.366H452.726V109.244H455.848ZM458.97 109.244V112.366H455.848V109.244H458.97ZM462.091 109.244V112.366H458.97V109.244H462.091ZM465.213 109.244V112.366H462.091V109.244H465.213ZM471.457 112.366V115.488H468.335V112.366H471.457ZM468.335 112.366V115.488H465.213V112.366H468.335ZM465.213 112.366V115.488H462.091V112.366H465.213ZM462.091 112.366V115.488H458.97V112.366H462.091ZM458.97 112.366V115.488H455.848V112.366H458.97ZM455.848 112.366V115.488H452.726V112.366H455.848ZM455.848 115.488V118.61H452.726V115.488H455.848ZM452.726 115.488V118.61H449.604V115.488H452.726ZM449.604 115.488V118.61H446.482V115.488H449.604ZM446.482 112.366V115.488H443.36V112.366H446.482ZM449.604 112.366V115.488H446.482V112.366H449.604ZM452.726 112.366V115.488H449.604V112.366H452.726ZM465.213 115.488V118.61H462.091V115.488H465.213ZM462.091 115.488V118.61H458.97V115.488H462.091ZM458.97 115.488V118.61H455.848V115.488H458.97ZM443.36 112.366V115.488H440.238V112.366H443.36ZM443.36 109.244V112.366H440.238V109.244H443.36ZM446.482 109.244V112.366H443.36V109.244H446.482ZM440.238 109.244V112.366H437.116V109.244H440.238ZM440.238 106.122V109.244H437.116V106.122H440.238ZM443.36 106.122V109.244H440.238V106.122H443.36ZM471.457 93.6341V96.7561H468.335V93.6341H471.457ZM474.579 93.6341V96.7561H471.457V93.6341H474.579ZM477.701 93.6341V96.7561H474.579V93.6341H477.701ZM480.823 93.6341V96.7561H477.701V93.6341H480.823ZM480.823 96.7561V99.878H477.701V96.7561H480.823ZM480.823 99.878V103H477.701V99.878H480.823ZM477.701 99.878V103H474.579V99.878H477.701ZM474.579 99.878V103H471.457V99.878H474.579ZM471.457 99.878V103H468.335V99.878H471.457ZM471.457 96.7561V99.878H468.335V96.7561H471.457ZM474.579 96.7561V99.878H471.457V96.7561H474.579ZM477.701 96.7561V99.878H474.579V96.7561H477.701ZM452.726 84.2683V87.3902H449.604V84.2683H452.726ZM455.848 84.2683V87.3902H452.726V84.2683H455.848ZM458.97 84.2683V87.3902H455.848V84.2683H458.97ZM462.091 84.2683V87.3902H458.97V84.2683H462.091ZM465.213 84.2683V87.3902H462.091V84.2683H465.213ZM465.213 87.3902V90.5122H462.091V87.3902H465.213ZM462.091 93.6341V96.7561H458.97V93.6341H462.091ZM458.97 93.6341V96.7561H455.848V93.6341H458.97ZM455.848 93.6341V96.7561H452.726V93.6341H455.848ZM452.726 93.6341V96.7561H449.604V93.6341H452.726ZM449.604 93.6341V96.7561H446.482V93.6341H449.604ZM449.604 90.5122V93.6341H446.482V90.5122H449.604ZM449.604 87.3902V90.5122H446.482V87.3902H449.604ZM452.726 87.3902V90.5122H449.604V87.3902H452.726ZM455.848 87.3902V90.5122H452.726V87.3902H455.848ZM455.848 90.5122V93.6341H452.726V90.5122H455.848ZM452.726 90.5122V93.6341H449.604V90.5122H452.726ZM458.97 87.3902V90.5122H455.848V87.3902H458.97ZM462.091 87.3902V90.5122H458.97V87.3902H462.091ZM462.091 90.5122V93.6341H458.97V90.5122H462.091ZM458.97 90.5122V93.6341H455.848V90.5122H458.97ZM465.213 90.5122V93.6341H462.091V90.5122H465.213ZM446.482 93.6341V96.7561H443.36V93.6341H446.482ZM446.482 90.5122V93.6341H443.36V90.5122H446.482ZM443.36 90.5122V93.6341H440.238V90.5122H443.36ZM440.238 90.5122V93.6341H437.116V90.5122H440.238ZM440.238 87.3902V90.5122H437.116V87.3902H440.238ZM437.116 87.3902V90.5122H433.994V87.3902H437.116ZM437.116 84.2683V87.3902H433.994V84.2683H437.116ZM437.116 81.1463V84.2683H433.994V81.1463H437.116ZM440.238 81.1463V84.2683H437.116V81.1463H440.238ZM433.994 81.1463V84.2683H430.872V81.1463H433.994ZM433.994 78.0244V81.1463H430.872V78.0244H433.994ZM437.116 78.0244V81.1463H433.994V78.0244H437.116ZM446.482 84.2683V87.3902H443.36V84.2683H446.482ZM449.604 84.2683V87.3902H446.482V84.2683H449.604ZM449.604 81.1463V84.2683H446.482V81.1463H449.604ZM446.482 81.1463V84.2683H443.36V81.1463H446.482ZM443.36 81.1463V84.2683H440.238V81.1463H443.36ZM443.36 84.2683V87.3902H440.238V84.2683H443.36ZM443.36 87.3902V90.5122H440.238V87.3902H443.36ZM446.482 87.3902V90.5122H443.36V87.3902H446.482ZM440.238 84.2683V87.3902H437.116V84.2683H440.238ZM443.36 78.0244V81.1463H440.238V78.0244H443.36ZM446.482 78.0244V81.1463H443.36V78.0244H446.482ZM446.482 74.9024V78.0244H443.36V74.9024H446.482ZM446.482 71.7805V74.9024H443.36V71.7805H446.482ZM446.482 68.6585V71.7805H443.36V68.6585H446.482ZM446.482 65.5366V68.6585H443.36V65.5366H446.482ZM446.482 62.4146V65.5366H443.36V62.4146H446.482ZM446.482 59.2927V62.4146H443.36V59.2927H446.482ZM443.36 59.2927V62.4146H440.238V59.2927H443.36ZM440.238 59.2927V62.4146H437.116V59.2927H440.238ZM437.116 59.2927V62.4146H433.994V59.2927H437.116ZM437.116 56.1707V59.2927H433.994V56.1707H437.116ZM433.994 56.1707V59.2927H430.872V56.1707H433.994ZM433.994 59.2927V62.4146H430.872V59.2927H433.994ZM433.994 62.4146V65.5366H430.872V62.4146H433.994ZM433.994 65.5366V68.6585H430.872V65.5366H433.994ZM433.994 68.6585V71.7805H430.872V68.6585H433.994ZM433.994 71.7805V74.9024H430.872V71.7805H433.994ZM433.994 74.9024V78.0244H430.872V74.9024H433.994ZM440.238 78.0244V81.1463H437.116V78.0244H440.238ZM443.36 74.9024V78.0244H440.238V74.9024H443.36ZM443.36 71.7805V74.9024H440.238V71.7805H443.36ZM443.36 68.6585V71.7805H440.238V68.6585H443.36ZM443.36 65.5366V68.6585H440.238V65.5366H443.36ZM443.36 62.4146V65.5366H440.238V62.4146H443.36ZM440.238 62.4146V65.5366H437.116V62.4146H440.238ZM437.116 62.4146V65.5366H433.994V62.4146H437.116ZM437.116 65.5366V68.6585H433.994V65.5366H437.116ZM437.116 74.9024V78.0244H433.994V74.9024H437.116ZM437.116 71.7805V74.9024H433.994V71.7805H437.116ZM440.238 71.7805V74.9024H437.116V71.7805H440.238ZM440.238 68.6585V71.7805H437.116V68.6585H440.238ZM440.238 65.5366V68.6585H437.116V65.5366H440.238ZM437.116 68.6585V71.7805H433.994V68.6585H437.116ZM440.238 74.9024V78.0244H437.116V74.9024H440.238ZM462.091 43.6829V46.8049H458.97V43.6829H462.091ZM458.97 43.6829V46.8049H455.848V43.6829H458.97ZM455.848 43.6829V46.8049H452.726V43.6829H455.848ZM452.726 43.6829V46.8049H449.604V43.6829H452.726ZM449.604 43.6829V46.8049H446.482V43.6829H449.604ZM446.482 43.6829V46.8049H443.36V43.6829H446.482ZM446.482 46.8049V49.9268H443.36V46.8049H446.482ZM443.36 46.8049V49.9268H440.238V46.8049H443.36ZM440.238 46.8049V49.9268H437.116V46.8049H440.238ZM440.238 49.9268V53.0488H437.116V49.9268H440.238ZM437.116 49.9268V53.0488H433.994V49.9268H437.116ZM440.238 53.0488V56.1707H437.116V53.0488H440.238ZM440.238 56.1707V59.2927H437.116V56.1707H440.238ZM437.116 53.0488V56.1707H433.994V53.0488H437.116ZM443.36 53.0488V56.1707H440.238V53.0488H443.36ZM446.482 53.0488V56.1707H443.36V53.0488H446.482ZM446.482 56.1707V59.2927H443.36V56.1707H446.482ZM449.604 56.1707V59.2927H446.482V56.1707H449.604ZM443.36 56.1707V59.2927H440.238V56.1707H443.36ZM446.482 49.9268V53.0488H443.36V49.9268H446.482ZM443.36 49.9268V53.0488H440.238V49.9268H443.36ZM449.604 49.9268V53.0488H446.482V49.9268H449.604ZM449.604 53.0488V56.1707H446.482V53.0488H449.604ZM452.726 53.0488V56.1707H449.604V53.0488H452.726ZM452.726 49.9268V53.0488H449.604V49.9268H452.726ZM455.848 49.9268V53.0488H452.726V49.9268H455.848ZM458.97 49.9268V53.0488H455.848V49.9268H458.97ZM462.091 49.9268V53.0488H458.97V49.9268H462.091ZM465.213 49.9268V53.0488H462.091V49.9268H465.213ZM465.213 53.0488V56.1707H462.091V53.0488H465.213ZM462.091 53.0488V56.1707H458.97V53.0488H462.091ZM458.97 53.0488V56.1707H455.848V53.0488H458.97ZM455.848 53.0488V56.1707H452.726V53.0488H455.848ZM449.604 46.8049V49.9268H446.482V46.8049H449.604ZM452.726 46.8049V49.9268H449.604V46.8049H452.726ZM455.848 46.8049V49.9268H452.726V46.8049H455.848ZM458.97 46.8049V49.9268H455.848V46.8049H458.97ZM462.091 46.8049V49.9268H458.97V46.8049H462.091ZM465.213 46.8049V49.9268H462.091V46.8049H465.213ZM465.213 43.6829V46.8049H462.091V43.6829H465.213ZM465.213 81.1463V84.2683H462.091V81.1463H465.213Z" fill="white"/>
</svg>
